<?xml version="1.0" encoding="utf-8"?>
<!-- Generator: Adobe Illustrator 26.5.0, SVG Export Plug-In . SVG Version: 6.00 Build 0)  -->
<svg version="1.1" id="Layer_1" xmlns="http://www.w3.org/2000/svg" xmlns:xlink="http://www.w3.org/1999/xlink" x="0px" y="0px"
	 viewBox="0 0 512 512" style="enable-background:new 0 0 512 512;" xml:space="preserve">
<style type="text/css">
	.st0{fill:#90DAFD;}
	.st1{fill:#C3E9FE;}
</style>
<g id="XMLID_1_">
	<path id="XMLID_3_" class="st0" d="M87.25,512h337.22c48.25,0,87.39-39.14,87.39-87.39V87.39c0-46.99-37.17-85.43-83.6-87.39H83.6
		C38.58,1.96,2.38,37.87,0,82.76v346.48C2.38,475.39,40.54,512,87.25,512z"/>
	<path id="XMLID_4_" class="st1" d="M83.6,0C38.58,1.96,2.38,37.87,0,82.76v234.12c3.93,2.52,105.35,65.93,255.58,65.93
		c153.18,0,256.42-66.07,256.42-66.07V87.39C512,40.4,474.83,1.96,428.4,0H83.6L83.6,0z"/>
	<path id="XMLID_5_" d="M305.8,319.68c0,8.98-7.29,16.27-16.27,16.27c-8.98,0-16.27-7.29-16.27-16.27v-256
		c0-8.98,7.29-16.27,16.27-16.27c8.98,0,16.27,7.29,16.27,16.27V319.68"/>
	<path id="XMLID_6_" d="M237.9,319.68c0,8.98-7.29,16.27-16.27,16.27c-8.98,0-16.27-7.29-16.27-16.27v-256
		c0-8.98,7.29-16.27,16.27-16.27c8.98,0,16.27,7.29,16.27,16.27V319.68"/>
	<path id="XMLID_7_" d="M170.01,294.72c0,8.98-7.29,16.27-16.27,16.27c-8.98,0-16.27-7.29-16.27-16.27V89.92
		c0-8.98,7.29-16.27,16.27-16.27c8.98,0,16.27,7.29,16.27,16.27V294.72"/>
	<path id="XMLID_8_" d="M373.55,294.01c0,8.98-7.29,16.27-16.27,16.27c-8.98,0-16.27-7.29-16.27-16.27V89.21
		c0-8.98,7.29-16.27,16.27-16.27c8.98,0,16.27,7.29,16.27,16.27V294.01"/>
	<path id="XMLID_9_" d="M441.44,251.65c0,8.98-7.29,16.27-16.27,16.27c-8.98,0-16.27-7.29-16.27-16.27V131.72
		c0-8.98,7.29-16.27,16.27-16.27c8.98,0,16.27,7.29,16.27,16.27V251.65"/>
	<path id="XMLID_10_" d="M102.26,251.65c0,8.98-7.29,16.27-16.27,16.27s-16.27-7.29-16.27-16.27V131.72
		c0-8.98,7.29-16.27,16.27-16.27c8.98,0,16.27,7.29,16.27,16.27V251.65"/>
	<path id="XMLID_11_" d="M255.58,462.9c-79.54,0-156.83-33.24-160.05-34.65c-8.28-3.51-11.92-13.19-8.42-21.32
		c3.51-8.28,13.19-11.92,21.32-8.42c0.7,0.28,74.63,31.98,147.15,31.98s146.03-31.56,146.73-31.98c8.28-3.65,17.81,0.14,21.32,8.42
		c3.65,8.28-0.14,17.81-8.42,21.32C411.98,429.66,335.11,462.9,255.58,462.9"/>
</g>
</svg>
